<svg width="116" height="32" viewBox="0 0 116 32" fill="none" xmlns="http://www.w3.org/2000/svg">
<path d="M47.776 10.64H50.4V22H48.256L48 21.232H47.84C47.1787 21.8507 46.256 22.16 45.072 22.16C43.728 22.16 42.6347 21.7867 41.792 21.04C40.96 20.2933 40.544 19.2747 40.544 17.984C40.544 16.6827 40.9707 15.6693 41.824 14.944C42.6773 14.208 43.76 13.84 45.072 13.84C46.2133 13.84 47.1147 14.096 47.776 14.608V10.64ZM45.472 19.904C46.1867 19.904 46.7467 19.7333 47.152 19.392C47.568 19.0507 47.776 18.5813 47.776 17.984C47.776 17.408 47.5733 16.9493 47.168 16.608C46.7627 16.2667 46.1973 16.096 45.472 16.096C44.7573 16.096 44.192 16.2667 43.776 16.608C43.3707 16.9493 43.168 17.408 43.168 17.984C43.168 18.5707 43.3707 19.04 43.776 19.392C44.1813 19.7333 44.7467 19.904 45.472 19.904ZM60.3581 21.024C59.4195 21.7813 58.2035 22.16 56.7101 22.16C55.2168 22.16 53.9955 21.7813 53.0461 21.024C52.0968 20.256 51.6221 19.248 51.6221 18C51.6221 16.7413 52.0968 15.7333 53.0461 14.976C53.9955 14.2187 55.2168 13.84 56.7101 13.84C58.2035 13.84 59.4195 14.2187 60.3581 14.976C61.3075 15.7333 61.7821 16.7413 61.7821 18C61.7821 19.248 61.3075 20.256 60.3581 21.024ZM54.8861 19.376C55.3235 19.728 55.9315 19.904 56.7101 19.904C57.4888 19.904 58.0915 19.728 58.5181 19.376C58.9555 19.0133 59.1741 18.5547 59.1741 18C59.1741 17.4347 58.9555 16.976 58.5181 16.624C58.0915 16.272 57.4888 16.096 56.7101 16.096C55.9315 16.096 55.3235 16.272 54.8861 16.624C54.4488 16.976 54.2301 17.4347 54.2301 18C54.2301 18.5547 54.4488 19.0133 54.8861 19.376ZM67.2941 22.16C66.2275 22.16 65.4595 21.9147 64.9901 21.424C64.5208 20.9227 64.2861 20.2773 64.2861 19.488V16.048H62.2861V14H63.0701C63.5608 14 63.9181 13.8987 64.1421 13.696C64.3768 13.4933 64.4941 13.1733 64.4941 12.736V11.744H66.8941V14H69.4061V16.048H66.8941V19.024C66.8941 19.1733 66.9048 19.3013 66.9261 19.408C66.9475 19.504 66.9955 19.616 67.0701 19.744C67.1448 19.8613 67.2675 19.952 67.4381 20.016C67.6195 20.08 67.8435 20.112 68.1101 20.112C68.4195 20.112 68.7235 20.08 69.0221 20.016V21.968C68.5421 22.096 67.9661 22.16 67.2941 22.16ZM79.8014 20.096H79.9614V22H78.9374C77.9454 22 77.284 21.6533 76.9534 20.96C76.324 21.76 75.2147 22.16 73.6254 22.16C72.516 22.16 71.6414 21.9573 71.0014 21.552C70.3614 21.136 70.0414 20.5333 70.0414 19.744C70.0414 18.9867 70.3027 18.4053 70.8254 18C71.3587 17.584 72.068 17.344 72.9534 17.28L76.5214 17.024V16.88C76.5214 16.176 75.956 15.824 74.8254 15.824C73.78 15.824 73.1934 16.1547 73.0654 16.816H70.4414C70.548 15.9093 70.9907 15.1893 71.7694 14.656C72.548 14.112 73.5667 13.84 74.8254 13.84C76.0947 13.84 77.1294 14.1067 77.9294 14.64C78.74 15.1733 79.1454 15.984 79.1454 17.072V19.44C79.1454 19.8773 79.364 20.096 79.8014 20.096ZM76.5214 18.848V18.736L73.5934 18.944C72.9747 19.0187 72.6654 19.2373 72.6654 19.6C72.6654 20.016 73.076 20.224 73.8974 20.224C74.3454 20.224 74.756 20.1867 75.1294 20.112C75.5027 20.0267 75.828 19.8773 76.1054 19.664C76.3827 19.4507 76.5214 19.1787 76.5214 18.848ZM80.6378 22V20.688L84.9738 16.128V16H80.8458V14H88.8938V15.312L84.6058 19.872V20H89.1978V22H80.6378ZM90.4231 22V14H92.8231L93.0471 14.944H93.2071C93.9005 14.208 94.8498 13.84 96.0551 13.84C97.3031 13.84 98.2738 14.1707 98.9671 14.832C99.6605 15.4933 100.007 16.4 100.007 17.552V22H97.3831V18.144C97.3831 17.4827 97.1911 16.976 96.8071 16.624C96.4338 16.272 95.9111 16.096 95.2391 16.096C94.5778 16.096 94.0445 16.272 93.6391 16.624C93.2445 16.976 93.0471 17.4987 93.0471 18.192V22H90.4231ZM103.212 10.8H105.516L103.9 13.12H101.82L103.212 10.8ZM101.548 22V14H104.172V22H101.548ZM115.224 14L111.432 17.024L115.224 22H112.184L109.544 18.544L108.328 19.504V22H105.704V10.64H108.328V16.528H108.488L111.752 14H115.224Z" fill="#ECEEF2"/>
<path d="M0 8C0 3.58172 3.58172 0 8 0H24C28.4183 0 32 3.58172 32 8V24C32 28.4183 28.4183 32 24 32H8C3.58172 32 0 28.4183 0 24V8Z" fill="#AE3EC9"/>
<g clip-path="url(#clip0_2060_4635)">
<g clip-path="url(#clip1_2060_4635)">
<path d="M12 12C12 11.2044 12.3687 10.4413 13.0251 9.87868C13.6815 9.31607 14.5717 9 15.5 9H16.5C17.4283 9 18.3185 9.31607 18.9749 9.87868C19.6313 10.4413 20 11.2044 20 12C20.0368 12.6493 19.8617 13.2929 19.501 13.834C19.1402 14.3751 18.6135 14.7843 18 15C17.3865 15.2876 16.8598 15.8333 16.499 16.5547C16.1383 17.2761 15.9632 18.1343 16 19" stroke="white" stroke-width="2" stroke-linecap="round" stroke-linejoin="round"/>
<path d="M16 23V23.01" stroke="white" stroke-width="2" stroke-linecap="round" stroke-linejoin="round"/>
</g>
</g>
<defs>
<clipPath id="clip0_2060_4635">
<rect width="24" height="24" fill="white" transform="translate(4 4)"/>
</clipPath>
<clipPath id="clip1_2060_4635">
<rect width="24" height="24" fill="white" transform="translate(4 4)"/>
</clipPath>
</defs>
</svg>
