<svg width="116" height="32" viewBox="0 0 116 32" fill="none" xmlns="http://www.w3.org/2000/svg">
<path d="M40.72 21V13H43.12L43.344 13.928H43.504C44.1547 13.2027 44.976 12.84 45.968 12.84C47.056 12.84 47.8453 13.24 48.336 14.04H48.48C49.1733 13.24 50.1067 12.84 51.28 12.84C52.304 12.84 53.0933 13.1227 53.648 13.688C54.2133 14.2427 54.496 15.0533 54.496 16.12V21H51.872V16.584C51.872 16.1253 51.7333 15.768 51.456 15.512C51.1787 15.2453 50.8213 15.112 50.384 15.112C49.936 15.112 49.5787 15.2507 49.312 15.528C49.0453 15.7947 48.912 16.1627 48.912 16.632V21H46.288V16.6C46.288 16.1413 46.1547 15.7787 45.888 15.512C45.6213 15.2347 45.2693 15.096 44.832 15.096C44.416 15.096 44.064 15.2347 43.776 15.512C43.488 15.7893 43.344 16.1573 43.344 16.616V21H40.72ZM65.442 19.096H65.602V21H64.578C63.586 21 62.9247 20.6533 62.594 19.96C61.9647 20.76 60.8553 21.16 59.266 21.16C58.1567 21.16 57.282 20.9573 56.642 20.552C56.002 20.136 55.682 19.5333 55.682 18.744C55.682 17.9867 55.9433 17.4053 56.466 17C56.9993 16.584 57.7087 16.344 58.594 16.28L62.162 16.024V15.88C62.162 15.176 61.5967 14.824 60.466 14.824C59.4207 14.824 58.834 15.1547 58.706 15.816H56.082C56.1887 14.9093 56.6313 14.1893 57.41 13.656C58.1887 13.112 59.2073 12.84 60.466 12.84C61.7353 12.84 62.77 13.1067 63.57 13.64C64.3807 14.1733 64.786 14.984 64.786 16.072V18.44C64.786 18.8773 65.0047 19.096 65.442 19.096ZM62.162 17.848V17.736L59.234 17.944C58.6153 18.0187 58.306 18.2373 58.306 18.6C58.306 19.016 58.7167 19.224 59.538 19.224C59.986 19.224 60.3967 19.1867 60.77 19.112C61.1433 19.0267 61.4687 18.8773 61.746 18.664C62.0233 18.4507 62.162 18.1787 62.162 17.848ZM66.5638 21V13H68.9638L69.1878 13.944H69.3478C70.0411 13.208 70.9904 12.84 72.1958 12.84C73.4438 12.84 74.4144 13.1707 75.1078 13.832C75.8011 14.4933 76.1478 15.4 76.1478 16.552V21H73.5238V17.144C73.5238 16.4827 73.3318 15.976 72.9478 15.624C72.5744 15.272 72.0518 15.096 71.3798 15.096C70.7184 15.096 70.1851 15.272 69.7798 15.624C69.3851 15.976 69.1878 16.4987 69.1878 17.192V21H66.5638ZM87.0983 19.096H87.2583V21H86.2343C85.2423 21 84.5809 20.6533 84.2503 19.96C83.6209 20.76 82.5116 21.16 80.9223 21.16C79.8129 21.16 78.9383 20.9573 78.2983 20.552C77.6583 20.136 77.3383 19.5333 77.3383 18.744C77.3383 17.9867 77.5996 17.4053 78.1223 17C78.6556 16.584 79.3649 16.344 80.2503 16.28L83.8183 16.024V15.88C83.8183 15.176 83.2529 14.824 82.1223 14.824C81.0769 14.824 80.4903 15.1547 80.3623 15.816H77.7383C77.8449 14.9093 78.2876 14.1893 79.0663 13.656C79.8449 13.112 80.8636 12.84 82.1223 12.84C83.3916 12.84 84.4263 13.1067 85.2263 13.64C86.0369 14.1733 86.4423 14.984 86.4423 16.072V18.44C86.4423 18.8773 86.6609 19.096 87.0983 19.096ZM83.8183 17.848V17.736L80.8903 17.944C80.2716 18.0187 79.9623 18.2373 79.9623 18.6C79.9623 19.016 80.3729 19.224 81.1943 19.224C81.6423 19.224 82.0529 19.1867 82.4263 19.112C82.7996 19.0267 83.1249 18.8773 83.4023 18.664C83.6796 18.4507 83.8183 18.1787 83.8183 17.848ZM94.0333 19.032C95.0466 19.032 95.8306 19.2507 96.3853 19.688C96.9399 20.1253 97.2173 20.7227 97.2173 21.48C97.2173 22.3547 96.8226 23.0533 96.0333 23.576C95.2439 24.0987 94.0813 24.36 92.5453 24.36C91.0733 24.36 89.9533 24.1093 89.1853 23.608C88.4173 23.1173 87.9639 22.4933 87.8253 21.736L88.9453 20.696C88.3479 20.344 88.0493 19.8373 88.0493 19.176C88.0493 18.4507 88.4439 17.88 89.2333 17.464C88.5399 16.9947 88.1933 16.3707 88.1933 15.592C88.1933 14.792 88.5666 14.136 89.3133 13.624C90.0706 13.1013 91.1106 12.84 92.4333 12.84C93.2546 12.84 94.0013 12.9573 94.6733 13.192C95.3666 12.9253 95.9373 12.5307 96.3853 12.008L97.5853 13.448C97.3079 13.7253 96.8706 13.976 96.2733 14.2C96.6573 14.6373 96.8493 15.1013 96.8493 15.592C96.8493 16.4453 96.4439 17.1067 95.6333 17.576C94.8333 18.0453 93.7933 18.28 92.5133 18.28C91.8413 18.28 91.2386 18.216 90.7053 18.088C90.5026 18.1947 90.4013 18.344 90.4013 18.536C90.4013 18.8667 90.7319 19.032 91.3932 19.032H94.0333ZM92.5133 14.696C91.3506 14.696 90.7693 14.9893 90.7693 15.576C90.7693 16.1307 91.3506 16.408 92.5133 16.408C93.6866 16.408 94.2733 16.1307 94.2733 15.576C94.2733 14.9893 93.6866 14.696 92.5133 14.696ZM92.6253 22.456C93.2653 22.456 93.7613 22.3813 94.1133 22.232C94.4653 22.0933 94.6413 21.896 94.6413 21.64C94.6413 21.224 94.3319 21.016 93.7133 21.016H91.1533L90.3693 21.752C90.6039 22.2213 91.3559 22.456 92.6253 22.456ZM104.99 18.28H107.566C107.406 19.1547 106.921 19.8533 106.11 20.376C105.299 20.8987 104.254 21.16 102.974 21.16C101.47 21.16 100.259 20.7867 99.3419 20.04C98.4245 19.2933 97.9659 18.3013 97.9659 17.064C97.9659 15.784 98.4245 14.76 99.3419 13.992C100.27 13.224 101.433 12.84 102.83 12.84C103.438 12.84 104.009 12.92 104.542 13.08C105.086 13.2293 105.582 13.464 106.03 13.784C106.478 14.104 106.83 14.5413 107.086 15.096C107.353 15.64 107.486 16.2747 107.486 17C107.486 17.2453 107.47 17.496 107.438 17.752H100.59C100.686 18.168 100.937 18.504 101.342 18.76C101.758 19.0053 102.302 19.128 102.974 19.128C104.083 19.128 104.755 18.8453 104.99 18.28ZM102.83 14.872C101.635 14.872 100.91 15.2453 100.654 15.992H104.91C104.835 15.6507 104.617 15.3787 104.254 15.176C103.902 14.9733 103.427 14.872 102.83 14.872ZM108.829 21V13H111.213L111.453 14.152H111.613C111.965 13.672 112.339 13.336 112.733 13.144C113.139 12.9413 113.699 12.84 114.413 12.84H115.197V15.448C114.877 15.3947 114.493 15.368 114.045 15.368C113.192 15.368 112.547 15.5973 112.109 16.056C111.672 16.5147 111.453 17.128 111.453 17.896V21H108.829Z" fill="#ECEEF2"/>
<path d="M0 8C0 3.58172 3.58172 0 8 0H24C28.4183 0 32 3.58172 32 8V24C32 28.4183 28.4183 32 24 32H8C3.58172 32 0 28.4183 0 24V8Z" fill="#E67700"/>
<g clip-path="url(#clip0_2052_4566)">
<g clip-path="url(#clip1_2052_4566)">
<path d="M23 11H9C7.89543 11 7 11.8954 7 13V22C7 23.1046 7.89543 24 9 24H23C24.1046 24 25 23.1046 25 22V13C25 11.8954 24.1046 11 23 11Z" stroke="white" stroke-width="2" stroke-linecap="round" stroke-linejoin="round"/>
<path d="M12 11V9C12 8.46957 12.2107 7.96086 12.5858 7.58579C12.9609 7.21071 13.4696 7 14 7H18C18.5304 7 19.0391 7.21071 19.4142 7.58579C19.7893 7.96086 20 8.46957 20 9V11" stroke="white" stroke-width="2" stroke-linecap="round" stroke-linejoin="round"/>
<path d="M16 16V16.01" stroke="white" stroke-width="2" stroke-linecap="round" stroke-linejoin="round"/>
<path d="M7 17C9.79158 18.4067 12.874 19.1394 16 19.1394C19.126 19.1394 22.2084 18.4067 25 17" stroke="white" stroke-width="2" stroke-linecap="round" stroke-linejoin="round"/>
</g>
</g>
<defs>
<clipPath id="clip0_2052_4566">
<rect width="24" height="24" fill="white" transform="translate(4 4)"/>
</clipPath>
<clipPath id="clip1_2052_4566">
<rect width="24" height="24" fill="white" transform="translate(4 4)"/>
</clipPath>
</defs>
</svg>
